<svg width="199" height="34" viewBox="0 0 199 34" fill="none" xmlns="http://www.w3.org/2000/svg">
<path d="M18.6426 33.7139C14.944 33.7139 11.762 33.3245 9.09668 32.5459C6.44629 31.7523 4.34993 30.5918 2.80762 29.0645C1.28027 27.5371 0.359375 25.6654 0.0449219 23.4492L0 23.1572H9.43359L9.47852 23.3369C9.67318 24.1006 10.1598 24.752 10.9385 25.291C11.7171 25.8151 12.7653 26.2194 14.083 26.5039C15.4007 26.7734 16.9805 26.9082 18.8223 26.9082C20.3496 26.9082 21.6523 26.7734 22.7305 26.5039C23.8236 26.2194 24.6621 25.8226 25.2461 25.3135C25.8301 24.7894 26.1221 24.1755 26.1221 23.4717V23.4492C26.1221 22.5658 25.7402 21.9144 24.9766 21.4951C24.2279 21.0609 22.9102 20.7389 21.0234 20.5293L12.8926 19.9229C8.83464 19.5335 5.79492 18.5677 3.77344 17.0254C1.76693 15.4681 0.763672 13.3118 0.763672 10.5566V10.5342C0.763672 8.33301 1.4375 6.44629 2.78516 4.87402C4.13281 3.30176 6.04948 2.09635 8.53516 1.25781C11.0358 0.419271 14.0081 0 17.4521 0C20.9411 0 23.9359 0.39681 26.4365 1.19043C28.9521 1.96908 30.9362 3.1071 32.3887 4.60449C33.8411 6.08691 34.7246 7.88379 35.0391 9.99512L35.1064 10.3994H25.6729L25.6279 10.1973C25.4333 9.44857 24.999 8.82715 24.3252 8.33301C23.6663 7.82389 22.7679 7.44206 21.6299 7.1875C20.5068 6.93294 19.1517 6.80566 17.5645 6.80566C16.0221 6.80566 14.7269 6.93294 13.6787 7.1875C12.6455 7.44206 11.8594 7.80892 11.3203 8.28809C10.7962 8.75228 10.5342 9.30632 10.5342 9.9502V9.97266C10.5342 10.8112 10.931 11.4551 11.7246 11.9043C12.5332 12.3385 13.8584 12.6455 15.7002 12.8252L23.9658 13.4541C26.6611 13.7236 28.8923 14.2327 30.6592 14.9814C32.4261 15.7301 33.7363 16.7484 34.5898 18.0361C35.4583 19.3239 35.8926 20.8962 35.8926 22.7529V22.7754C35.8926 25.0514 35.2113 27.013 33.8486 28.6602C32.486 30.2923 30.5169 31.5426 27.9414 32.4111C25.3809 33.2796 22.2812 33.7139 18.6426 33.7139ZM39.8232 33.0625V0.651367H48.2686L71.2012 24.46L62.7109 19.9004H66.7764V0.651367H76.3223V33.0625H67.8994L44.9668 9.00684L53.4346 13.6113H49.3916V33.0625H39.8232ZM79.4893 33.0625L94.0215 0.651367H103.478V8.1084H100.221L89.8662 33.0625H79.4893ZM87.5078 26.2119L90.1807 19.7881H110.148L112.799 26.2119H87.5078ZM110.755 33.0625L100.4 8.1084V0.651367H106.6L121.132 33.0625H110.755ZM129.195 23.8984V17.0029H142.852C144.589 17.0029 145.921 16.6061 146.85 15.8125C147.778 15.0189 148.242 13.8734 148.242 12.376V12.3311C148.242 10.8337 147.778 9.69564 146.85 8.91699C145.921 8.12337 144.589 7.72656 142.852 7.72656H129.195V0.651367H144.514C147.359 0.651367 149.799 1.13802 151.836 2.11133C153.872 3.06966 155.437 4.41732 156.53 6.1543C157.623 7.89128 158.17 9.92025 158.17 12.2412V12.2861C158.17 14.5622 157.623 16.5762 156.53 18.3281C155.437 20.0651 153.872 21.4277 151.836 22.416C149.799 23.4043 147.359 23.8984 144.514 23.8984H129.195ZM124.276 33.0625V0.651367H134.092V33.0625H124.276ZM173.286 33.0625V22.0342L158.327 0.651367H169.131L178.138 14.1729H178.295L187.279 0.651367H198.083L183.124 22.0342V33.0625H173.286Z" fill="white"/>
</svg>
