<svg width="28" height="28" viewBox="0 0 28 28" fill="none" xmlns="http://www.w3.org/2000/svg">
<path d="M14 24.5C11.6703 24.4997 9.40683 23.7245 7.56599 22.2966C5.72515 20.8687 4.41149 18.8691 3.8318 16.6126C3.25212 14.3562 3.43935 11.971 4.36401 9.83261C5.28867 7.69423 6.89825 5.9241 8.93934 4.8009C10.9804 3.67769 13.3371 3.26521 15.6384 3.62838C17.9396 3.99155 20.0547 5.10975 21.6507 6.80694C23.2467 8.50412 24.233 10.6839 24.4541 13.0031C24.6753 15.3223 24.1189 17.6492 22.8725 19.6175L24.5 24.5L19.6175 22.8725C17.938 23.9385 15.9892 24.5031 14 24.5Z" stroke="white" stroke-width="2" stroke-linecap="round" stroke-linejoin="round"/>
</svg>
