<svg width="16" height="19" viewBox="0 0 16 19" fill="none" xmlns="http://www.w3.org/2000/svg">
<path d="M11.4512 4.57422C12.005 4.57434 13.994 4.62386 15.3027 6.45117C15.1894 6.53703 13.2012 7.62836 13.2012 10.0566C13.2012 12.8637 15.7276 13.8574 15.8057 13.8828C15.7931 13.9441 15.4029 15.2448 14.4717 16.5693C13.6412 17.7344 12.7724 18.8994 11.4512 18.8994C10.1302 18.8993 9.79012 18.1514 8.26758 18.1514C6.7828 18.1514 6.25394 18.9238 5.0459 18.9238C3.83796 18.9237 2.9952 17.844 2.02637 16.5195C0.906423 14.9619 2.15136e-05 12.5463 0 10.2529C0 6.5736 2.45406 4.62305 4.87012 4.62305C6.15356 4.6231 7.22298 5.44513 8.02832 5.44531C8.79589 5.44531 9.9916 4.57433 11.4512 4.57422ZM11.7529 0C11.7782 0.110437 11.791 0.24596 11.791 0.380859C11.7909 1.3496 11.3627 2.3186 10.7588 3.01758C10.1169 3.79008 9.00969 4.36609 8.12891 4.36621C8.02852 4.36619 7.92808 4.354 7.86523 4.3418C7.85268 4.29271 7.82715 4.14514 7.82715 3.99805C7.82731 3.01716 8.34302 2.04869 8.89648 1.43555C9.60112 0.638507 10.7714 0.0369828 11.7529 0Z" fill="white"/>
</svg>
