<svg width="30" height="30" viewBox="0 0 30 30" fill="none" xmlns="http://www.w3.org/2000/svg">
<path d="M20.625 4.75C23.9239 4.75 26.5 7.31598 26.5 10.625C26.5 12.6525 25.5944 14.576 23.7959 16.7764C21.9864 18.9901 19.379 21.3603 16.1406 24.2969L16.1396 24.2979L15 25.335L13.8604 24.2979L13.8594 24.2969L11.5518 22.1943C9.36726 20.1851 7.56128 18.4368 6.2041 16.7764C4.40562 14.576 3.5 12.6525 3.5 10.625C3.5 7.31598 6.07609 4.75 9.375 4.75C11.2476 4.75 13.0617 5.62674 14.2412 7.00098L15 7.88574L15.7588 7.00098C16.9383 5.62674 18.7524 4.75 20.625 4.75Z" stroke="white" stroke-width="2"/>
</svg>
