<svg width="22" height="22" viewBox="0 0 22 22" fill="none" xmlns="http://www.w3.org/2000/svg">
<path d="M19.25 11V4.58333C19.25 4.0971 19.0568 3.63079 18.713 3.28697C18.3692 2.94315 17.9029 2.75 17.4167 2.75H4.58333C4.0971 2.75 3.63079 2.94315 3.28697 3.28697C2.94315 3.63079 2.75 4.0971 2.75 4.58333V14.6667M19.25 11V17.4167C19.25 17.9029 19.0568 18.3692 18.713 18.713C18.3692 19.0568 17.9029 19.25 17.4167 19.25H14.6667M19.25 11C13.3448 11 9.98708 12.8196 8.19958 14.8894M2.75 14.6667V17.4167C2.75 17.9029 2.94315 18.3692 3.28697 18.713C3.63079 19.0568 4.0971 19.25 4.58333 19.25H14.6667M2.75 14.6667C4.03608 14.4522 6.08392 14.3981 8.19958 14.8894M14.6667 19.25C13.1047 16.7127 10.6086 15.4477 8.19958 14.8894M7.79167 6.41667C7.33333 6.41667 6.41667 6.69167 6.41667 7.79167C6.41667 8.89167 7.33333 9.16667 7.79167 9.16667C8.25 9.16667 9.16667 8.89167 9.16667 7.79167C9.16667 6.69167 8.25 6.41667 7.79167 6.41667Z" stroke="white" stroke-width="1.5" stroke-linecap="round" stroke-linejoin="round"/>
</svg>
