<svg width="179" height="143" viewBox="0 0 179 143" fill="none" xmlns="http://www.w3.org/2000/svg">
<path d="M167.541 85.1241C161.533 116.89 136.027 136.462 110.572 128.839C85.1162 121.215 69.3507 89.2839 75.3586 57.5177C81.3664 25.7516 106.873 6.1799 132.328 13.8032C157.784 21.4265 173.549 53.358 167.541 85.1241Z" fill="white"/>
<path d="M10.8781 85.1241C16.8859 116.89 42.392 136.462 67.8476 128.839C93.3031 121.215 109.069 89.2839 103.061 57.5177C97.0529 25.7516 71.5468 6.1799 46.0913 13.8032C20.6357 21.4265 4.87024 53.358 10.8781 85.1241Z" fill="white"/>
<path d="M164.819 87.8199C164.819 117.013 130.718 140.678 88.6524 140.678C46.587 140.678 12.4862 117.013 12.4862 87.8199C12.4862 58.627 46.587 34.9614 88.6524 34.9614C130.718 34.9614 164.819 58.627 164.819 87.8199Z" fill="white"/>
<path d="M135.684 64.0962C135.684 72.8311 128.603 79.9121 119.868 79.9121C111.133 79.9121 104.052 72.8311 104.052 64.0962C104.052 55.3613 111.133 48.2803 119.868 48.2803C128.603 48.2803 135.684 55.3613 135.684 64.0962Z" fill="#121212"/>
<path d="M123.198 59.9341C123.198 64.0717 119.844 67.4259 115.706 67.4259C111.568 67.4259 108.214 64.0717 108.214 59.9341C108.214 55.7966 111.568 52.4424 115.706 52.4424C119.844 52.4424 123.198 55.7966 123.198 59.9341Z" fill="white"/>
<path d="M74.9176 64.0962C74.9176 72.8311 67.8365 79.9121 59.1016 79.9121C50.3667 79.9121 43.2857 72.8311 43.2857 64.0962C43.2857 55.3613 50.3667 48.2803 59.1016 48.2803C67.8365 48.2803 74.9176 55.3613 74.9176 64.0962Z" fill="#121212"/>
<path d="M62.4313 59.9341C62.4313 64.0717 59.0771 67.4259 54.9396 67.4259C50.802 67.4259 47.4478 64.0717 47.4478 59.9341C47.4478 55.7966 50.802 52.4424 54.9396 52.4424C59.0771 52.4424 62.4313 55.7966 62.4313 59.9341Z" fill="white"/>
<path d="M105.973 83.8136C105.973 87.8072 99.8602 97.8092 91.7442 97.8092C83.6282 97.8092 76.5823 87.8072 76.5823 83.8136C76.5823 79.82 83.1616 76.5825 91.2777 76.5825C99.3937 76.5825 105.973 79.82 105.973 83.8136Z" fill="#FF9F1C"/>
<path d="M105.973 83.8136C105.973 87.8072 99.3937 91.0446 91.2777 91.0446C83.1616 91.0446 76.5823 87.8072 76.5823 83.8136C76.5823 79.82 83.1616 76.5825 91.2777 76.5825C99.3937 76.5825 105.973 79.82 105.973 83.8136Z" fill="#FFC83D"/>
</svg>
