<svg width="26" height="26" viewBox="0 0 26 26" fill="none" xmlns="http://www.w3.org/2000/svg">
<path d="M21.9574 3.2251C22.4334 3.05878 22.8918 3.47648 22.8011 3.94775L22.7758 4.04248L16.3568 22.3823C16.1642 22.9315 15.3999 22.9614 15.1644 22.4312L12.2738 15.9302L14.0336 14.147L14.0414 14.1392L14.0482 14.1313C14.3242 13.8352 14.4753 13.4434 14.4681 13.0386C14.4609 12.6339 14.2963 12.2476 14.0101 11.9614C13.7239 11.6753 13.3377 11.5115 12.933 11.5044C12.5282 11.4973 12.1364 11.6473 11.8402 11.9233L11.8285 11.9341L11.8177 11.9448L10.0619 13.7222L3.56873 10.8364C3.03803 10.6002 3.06896 9.8356 3.61755 9.64307L3.61658 9.64209L21.9574 3.22412V3.2251Z" stroke="white" stroke-width="1.5"/>
</svg>
